<svg width="40" height="36" viewBox="0 0 40 36" fill="none" xmlns="http://www.w3.org/2000/svg">
<g filter="url(#filter0_d_302_858)">
<path d="M31.6666 19.3333C34.1499 16.9 36.6666 13.9833 36.6666 10.1667C36.6666 7.73552 35.7008 5.40394 33.9817 3.68485C32.2626 1.96577 29.9311 1 27.4999 1C24.5666 1 22.4999 1.83333 19.9999 4.33333C17.4999 1.83333 15.4333 1 12.4999 1C10.0688 1 7.73719 1.96577 6.01811 3.68485C4.29902 5.40394 3.33325 7.73552 3.33325 10.1667C3.33325 14 5.83325 16.9167 8.33325 19.3333L19.9999 31L31.6666 19.3333Z" fill="#F10A34"/>
<path d="M31.6666 19.3333C34.1499 16.9 36.6666 13.9833 36.6666 10.1667C36.6666 7.73552 35.7008 5.40394 33.9817 3.68485C32.2626 1.96577 29.9311 1 27.4999 1C24.5666 1 22.4999 1.83333 19.9999 4.33333C17.4999 1.83333 15.4333 1 12.4999 1C10.0688 1 7.73719 1.96577 6.01811 3.68485C4.29902 5.40394 3.33325 7.73552 3.33325 10.1667C3.33325 14 5.83325 16.9167 8.33325 19.3333L19.9999 31L31.6666 19.3333Z" stroke="black" stroke-width="2" stroke-linecap="round" stroke-linejoin="round"/>
</g>
<defs>
<filter id="filter0_d_302_858" x="-1.66675" y="0" width="43.3333" height="40" filterUnits="userSpaceOnUse" color-interpolation-filters="sRGB">
<feFlood flood-opacity="0" result="BackgroundImageFix"/>
<feColorMatrix in="SourceAlpha" type="matrix" values="0 0 0 0 0 0 0 0 0 0 0 0 0 0 0 0 0 0 127 0" result="hardAlpha"/>
<feOffset dy="4"/>
<feGaussianBlur stdDeviation="2"/>
<feComposite in2="hardAlpha" operator="out"/>
<feColorMatrix type="matrix" values="0 0 0 0 0 0 0 0 0 0 0 0 0 0 0 0 0 0 0.25 0"/>
<feBlend mode="normal" in2="BackgroundImageFix" result="effect1_dropShadow_302_858"/>
<feBlend mode="normal" in="SourceGraphic" in2="effect1_dropShadow_302_858" result="shape"/>
</filter>
</defs>
</svg>
